<svg xmlns="http://www.w3.org/2000/svg" width="23.319" height="25.998" viewBox="0 0 23.319 25.998">
  <g id="Group_75733" data-name="Group 75733" transform="translate(-245 -501.691)">
    <path id="Path_87292" data-name="Path 87292" d="M23.319,7.748a2.768,2.768,0,0,0-1.244-2.159h0L12.9.3a2.763,2.763,0,0,0-2.491,0L1.245,5.589A2.765,2.765,0,0,0,0,7.748v10.5a2.765,2.765,0,0,0,1.245,2.158L10.414,25.7a2.757,2.757,0,0,0,2.491,0l9.168-5.293h0a2.764,2.764,0,0,0,1.244-2.157V15.19L12.45,21.466a1.753,1.753,0,0,1-1.579,0L3.9,17.439v-7.6a2.618,2.618,0,0,1,1.245-2l5.272-3.044a2.757,2.757,0,0,1,2.491,0l5.273,3.043a2.622,2.622,0,0,1,1.245,2v.71l3.9-2.249Z" transform="translate(245 501.691)" fill="#0059fe"/>
    <path id="Path_87293" data-name="Path 87293" d="M15.771,25.479,9.839,22.054v4.5l5.932,3.424a2.754,2.754,0,0,0,2.49,0l10.412-6.01v-4.5l-10.412,6.01a2.76,2.76,0,0,1-2.49,0" transform="translate(239.646 491.091)" fill="#65db00"/>
  </g>
</svg>
