<svg xmlns="http://www.w3.org/2000/svg" width="22.001" height="22.18" viewBox="0 0 22.001 22.18">
  <g id="documents-folder" transform="translate(-5.126)">
    <g id="Group_75946" data-name="Group 75946" transform="translate(5.126)">
      <path id="Path_87435" data-name="Path 87435" d="M18.614,13.752a.961.961,0,0,0-.957-.817H9.9L8.489,11.268a1.592,1.592,0,0,0-1.2-.572H2.249a1.231,1.231,0,0,0-.933.443,1.256,1.256,0,0,0-.27,1.008l.134.788H1.092a.954.954,0,0,0-.954,1.1L1.7,24.192a1.253,1.253,0,0,0,1.239,1.061H19.19a.968.968,0,0,0,.732-.336.958.958,0,0,0,.224-.77Z" transform="translate(-0.126 -3.072)" fill="#fff"/>
      <path id="Path_87436" data-name="Path 87436" d="M17.894,4.351H11.825a.8.8,0,0,0,0,1.594h6.069a.8.8,0,0,0,0-1.594Z" transform="translate(-3.269 -1.25)" fill="#fff"/>
      <path id="Path_87437" data-name="Path 87437" d="M29.7,12.053a.933.933,0,0,0-.7-.331H27.28l.392,3.632.936,6.344,1.31-8.9A.941.941,0,0,0,29.7,12.053Z" transform="translate(-7.926 -3.367)" fill="#fff"/>
      <path id="Path_87438" data-name="Path 87438" d="M8.382,1.465H18.976V8.657h1.465V.932A.942.942,0,0,0,19.5,0H7.788a1.008,1.008,0,0,0-1,1.021V6.589H8.382Z" transform="translate(-2.04)" fill="#fff"/>
      <path id="Path_87439" data-name="Path 87439" d="M17.9,8.46H11.831a.786.786,0,0,0-.741.641,2.611,2.611,0,0,1,1.348.833l.11.12H17.9a.8.8,0,0,0,0-1.593Z" transform="translate(-3.275 -2.43)" fill="#fff"/>
    </g>
  </g>
</svg>
