<svg xmlns="http://www.w3.org/2000/svg" width="22.005" height="22" viewBox="0 0 22.005 22">
  <path id="layers" d="M22.03,10.231,18.5,8.465,22.03,6.7a.86.86,0,0,0,0-1.537L11.886.091a.861.861,0,0,0-.769,0L.973,5.161a.86.86,0,0,0,0,1.537L4.507,8.465.973,10.231a.86.86,0,0,0,0,1.537l3.534,1.767L.973,15.3a.86.86,0,0,0,0,1.537l10.144,5.07a.86.86,0,0,0,.769,0l10.144-5.07a.86.86,0,0,0,0-1.537L18.5,13.535l3.534-1.767A.86.86,0,0,0,22.03,10.231ZM19.723,16.07,11.5,20.18,3.28,16.07,6.43,14.5l4.687,2.343a.86.86,0,0,0,.769,0L16.573,14.5ZM11.5,15.109,3.28,11,6.43,9.426l4.687,2.343a.86.86,0,0,0,.769,0l4.687-2.343L19.723,11Zm0,0" transform="translate(-0.499)" fill="#fff"/>
</svg>
